PathFileType	4	(X/Y/Z)	5_coords_data.trc
DataRate	CameraRate	NumFrames	NumMarkers	Units	OrigDataRate	OrigDataStartFrame	OrigNumFrames
30.0	30.0	7	21	m	30.0	1	68
Frame#	Time	THUMB_TIP	THUMB_IP	THUMB_MCP	THUMB_CMC	INDEX_TIP	INDEX_DIP	INDEX_PIP	INDEX_MCP	MIDDLE_TIP	MIDDLE_DIP	MIDDLE_PIP	MIDDLE_MCP	RING_TIP	RING_DIP	RING_PIP	RING_MCP	PINKY_TIP	PINKY_DIP	PINKY_PIP	PINKY_MCP	WRIST
X1	Y1	Z1	X2	Y2	Z2	X3	Y3	Z3	X4	Y4	Z4	X5	Y5	Z5	X6	Y6	Z6	X7	Y7	Z7	X8	Y8	Z8	X9	Y9	Z9	X10	Y10	Z10	X11	Y11	Z11	X12	Y12	Z12	X13	Y13	Z13	X14	Y14	Z14	X15	Y15	Z15	X16	Y16	Z16	X17	Y17	Z17	X18	Y18	Z18	X19	Y19	Z19	X20	Y20	Z20	X21	Y21	Z21
0	-2.749317978547796e-18	0.5416268825252984	-0.0126341841671479	-0.11750378580441115	0.5201017580086723	-0.016234415971405736	-0.12469456778548607	0.4905455998920091	-0.011544036526655144	-0.11613572101462577	0.4723789457036167	-0.027108125360202462	-0.07848440212164659	0.5685682368241932	0.04704867147392244	-0.1557926879705943	0.5539269386700568	0.04349558462655567	-0.1457424162221911	0.535402060889992	0.03890407009609664	-0.12937914238868695	0.5052335720542275	0.03167563206264479	-0.10020298673097722	0.5068971830811655	-0.02914564204224357	-0.10323969164054828	0.517690866579207	-0.016133682057354437	-0.10973471234072665	0.5327307612592523	0.007700538636359222	-0.11716041378479938	0.5148297421754673	0.03084222881372012	-0.08339410494748345	0.5230858894210734	-0.029220626982381814	-0.1086974146213609	0.5356006974071138	-0.016527878110314975	-0.10600043350478147	0.5514770538563242	0.002360215833070889	-0.10262979675730338	0.5292220029741025	0.0161977924482547	-0.0718409186087145	0.597034368702686	0.027198475749150575	-0.07926302750734004	0.5820299103684157	0.01943940382038256	-0.07649480914540618	0.5630827296588197	0.011140751379001168	-0.07289637478931915	0.5321139981693533	-0.007136108151275411	-0.07010755305893279	0.462283081001861	-0.023011742144276925	-0.051989820119430985
1	0.03333333333333339	0.5416873060920654	-0.013277372466329096	-0.11786291873470475	0.5200858107956073	-0.016618675877444034	-0.12494889731722775	0.4904318697602278	-0.012268688547183881	-0.11655000505117238	0.47208959192754907	-0.02692473843131038	-0.07862045132715895	0.568666324712441	0.04646187594320961	-0.15641555617738698	0.5540137963258366	0.04300309828239379	-0.14634876577662914	0.5354427212047699	0.03920120778861835	-0.12983602431674318	0.505181422502273	0.030986544290348972	-0.10101920286731081	0.5066361554600156	-0.02913727377941633	-0.10412453678013639	0.5176392522907806	-0.016022917107266332	-0.11003600945692743	0.5325835445401926	0.007851009860807556	-0.11752688993169375	0.5149410828453779	0.030710227558927716	-0.08343367018675096	0.5225323889543949	-0.029564121246221764	-0.1089784167804663	0.5352417838268086	-0.01695626559901664	-0.1068539738049297	0.5510186506001127	0.0020091135108056823	-0.10345032149628641	0.5290098780871205	0.016154815869187655	-0.07262445782210136	0.5971648223580723	0.027019744403101287	-0.07998060289160419	0.5821335292761387	0.01936299016769194	-0.07707640887887779	0.5631885055231969	0.011011454938937182	-0.07359073056277665	0.5319901886559035	-0.006779076193784372	-0.07026725682831897	0.4622830810018608	-0.023011742144276925	-0.051989820119430985
2	0.06666666666666676	0.5416871395250894	-0.013739415281792344	-0.11813420131368904	0.5200257145679289	-0.016878807822358954	-0.12512897674264575	0.4902994279852533	-0.0127895441109932	-0.11685577855188886	0.47185750006779004	-0.026783609180697887	-0.07872506340632723	0.5686979376927885	0.0459866523595609	-0.1568708344990457	0.554038352432415	0.042608163482350636	-0.1467870667061817	0.5354458295341966	0.03941404488143918	-0.13017004135136748	0.5051199958219759	0.03046420535052541	-0.1016414543546438	0.5064300089747149	-0.02913777062183842	-0.10481039825519273	0.5175905350140372	-0.01596864564128264	-0.1102891577655297	0.532448594193103	0.007944034035162528	-0.11782781667299569	0.5150226170843055	0.030598575981396703	-0.08348753461227304	0.522098163405554	-0.029828103558609098	-0.10920287325742159	0.5349497080680661	-0.017297544578317114	-0.10752272700519003	0.5506522797720829	0.0017255924259259592	-0.10409789425044019	0.5288416314005767	0.016110812033851785	-0.0732420697039099	0.5972595527889102	0.026837750748405775	-0.08055955336254406	0.5822064658581685	0.019265770337986154	-0.07754796133842212	0.5632608991751009	0.010881834875946517	-0.07414397129351985	0.5318905393094138	-0.006521821159982899	-0.07041613955370857	0.4622830810018608	-0.023011742144276925	-0.051989820119430985
3	0.10000000000000014	0.5416470729452234	-0.014057988125358523	-0.11834244913206599	0.5199393098307652	-0.01704686652131704	-0.12525906871830428	0.4901628822915961	-0.013142863563039286	-0.11707719094444474	0.4716789887398214	-0.02668119692424864	-0.07880253602807169	0.5686895848792294	0.04560020537893261	-0.15720236800213488	0.5540263942647247	0.04228970202357729	-0.1471013082291765	0.5354264234064687	0.0395434019980484	-0.13041272670641635	0.5050543470233123	0.03009141746154642	-0.10209606979749694	0.5062664642273271	-0.029153849975995016	-0.1053229090288923	0.5175450435060849	-0.015963332834816435	-0.11050015800890584	0.5323266060560805	0.007986459917428967	-0.11807131285510086	0.5150779203528728	0.0305056021927691	-0.08355292654150054	0.5217715466072445	-0.03002397803193846	-0.10938682161064944	0.5347234370190037	-0.017557604893490786	-0.10803106516689953	0.5503736837518358	0.0015065649063280562	-0.10459490654932177	0.5287141027104063	0.01606767700933509	-0.07371518185117376	0.5973324965765282	0.026650726459866436	-0.08101992613957543	0.5822614672076242	0.019147941220581832	-0.07792601479391553	0.5633126001723046	0.010750108493330246	-0.07457506529222552	0.5318140206109246	-0.006354001431075562	-0.07055357796671197	0.4622830810018608	-0.023011742144276925	-0.051989820119430985
4	0.13333333333333353	0.5415816077325192	-0.014263118308684097	-0.11850494291015118	0.5198387187077104	-0.017146766102148936	-0.12535558902990457	0.49003133499010465	-0.013359316811152877	-0.11723185197239494	0.4715488769978252	-0.02661299541231077	-0.07885700669452017	0.5686589018687429	0.0452861644515431	-0.15744162950336804	0.5539949333643592	0.042032826300278936	-0.14732314055610057	0.535394676824019	0.039596277679663894	-0.1305868470460993	0.5049880907054157	0.029849392753282578	-0.10240753107065648	0.5061364824349236	-0.02918739375842716	-0.10568667429367873	0.5175026244887321	-0.015998922096277735	-0.11067416163996088	0.5322178319919566	0.007985615504147225	-0.11826456177637351	0.5151105488398331	0.03042958221034986	-0.08362705114636532	0.5215393257894256	-0.030162017628436844	-0.10954052722703972	0.534558823005252	-0.017744464377868807	-0.10840164026320312	0.5501757629292147	0.001346411769395539	-0.10496221962286825	0.5286231789230508	0.016026621669527508	-0.07406402559885888	0.5973928629613673	0.02645822420143651	-0.08137903995473067	0.582306799805179	0.019011113542059976	-0.07822448114651409	0.563352066778428	0.010615577368194962	-0.07490106615017073	0.5317587780913973	-0.006264062254723757	-0.07067906104141786	0.462283081001861	-0.023011742144276925	-0.051989820119430985
5	0.1666666666666669	0.5415009233320729	-0.014379009473276305	-0.11863380221024383	0.5197321180855609	-0.017196251392875617	-0.12542955574505366	0.4899102002350514	-0.013465360946765315	-0.11733303351655436	0.4714608533186445	-0.02657379345725175	-0.07889242223790677	0.5686166742908706	0.04503319242053416	-0.15761053312106185	0.5539542003630591	0.04182750219993059	-0.1474746854246049	0.5353567857163712	0.0395839570458677	-0.13070827535563528	0.5049238040690779	0.029718274697772662	-0.10259888130556724	0.5060333392011548	-0.029236979100902172	-0.10592497160920089	0.5174627829298288	-0.016066983008196423	-0.11081567901929909	0.5321222195777291	0.007949164168414069	-0.11841404344577777	0.5151240444308088	0.0303687559947442	-0.08370710084036542	0.5213873773684548	-0.03025154118751261	-0.10967026585452544	0.5344492738675677	-0.017867776383504785	-0.10865575655171977	0.5500491771236905	0.0012375890635809572	-0.10521947825494105	0.5285640587592673	0.015988360379827316	-0.07430790649867919	0.5974464522879802	0.026260942979520085	-0.08165214296345824	0.5823475085955557	0.018858108184505395	-0.07845527944264369	0.5633847198743722	0.01047852105844116	-0.07513757202449306	0.5317223303328762	-0.006239562407810428	-0.07079220383088602	0.4622830810018609	-0.023011742144276925	-0.051989820119430985
6	0.20000000000000023	0.5414123953957631	-0.014425852967344444	-0.1187377771446401	0.5196251617827709	-0.01720882288405723	-0.1254884459956187	0.48980259806424153	-0.013484569164663007	-0.11739124725235914	0.4714078186981785	-0.02655790932446689	-0.07891255354870125	0.5685689290255193	0.04483345491342405	-0.15772431409111382	0.5539097142881756	0.04166706179347013	-0.14757141411650776	0.5353161398956634	0.03952044482222217	-0.13078806344124433	0.504863364264688	0.02967751639198779	-0.1026921329479013	0.5059518491947308	-0.029299068314935006	-0.10605995256738188	0.5174247900114145	-0.01615881777007544	-0.1109287763098469	0.5320395178732098	0.007885001480954945	-0.118525751717827	0.5151219391442274	0.03032134091459371	-0.08379026375857668	0.5213010039426585	-0.030301175594905527	-0.10977970039570265	0.5343864000330086	-0.017938354726455774	-0.10881374525529686	0.5499829349772003	0.001171192504577534	-0.10538543935302994	0.5285314558712294	0.015953262084416053	-0.0744654571877228	0.5974967377028532	0.026060432878504458	-0.08185305815312166	0.5823864482810894	0.018692640036964803	-0.07862896413546483	0.5634139045555666	0.010339968974617308	-0.07529917589785196	0.5317017617544771	-0.006267466567882352	-0.07089275618735769	0.4622830810018609	-0.023011742144276925	-0.051989820119430985
